# xmcd
#
# Track frame offsets:
#	150
#	13068
#	24999
#	37513
#	49997
#	63721
#	75666
#	90141
#	101805
#	116465
#	132429
#	151159
#
# Disc length: 2110 seconds
# Revision: 4
# Processed by: cddbd v1.5.2PL0 Copyright (c) Steve Scherf et al.
# Submitted via: dBpowerAMP V12.0
#
DISCID=88083c0c
DTITLE=Various Artist - Putumayo Presents: Cowboy Playground
DYEAR=2012
DGENRE=Western
TTITLE0=Wylie and The Wild West - Saddle Bum
TTITLE1=Riders in the Sky - I'm an Old Cowhand
TTITLE2=Kerry Grombacher - Close 'Em On Up
TTITLE3=Liz Masterson - Back in the Saddle Again
TTITLE4=David John and The Comstock Cowboys - It's the Cowboy Life for Me
TTITLE5=Buck Howdy - Pecos Bill
TTITLE6=Johnny Bregar - Don't Fence Me In
TTITLE7=Victor Johnson - Home on the Range
TTITLE8=Ian Tyson - Whoopee Ti Yi Yo (Git Along, Little Dogies)
TTITLE9=Dave Stamey - May the Trail Rise Up to Greet You
TTITLE10=Don Edwards - Take Me Back to the Range
TTITLE11=Cowboy Envy - Happy Trails
EXTD=
EXTT0=
EXTT1=
EXTT2=
EXTT3=
EXTT4=
EXTT5=
EXTT6=
EXTT7=
EXTT8=
EXTT9=
EXTT10=
EXTT11=
PLAYORDER=
